<svg width="78" height="77" viewBox="0 0 78 77" fill="none" xmlns="http://www.w3.org/2000/svg">
<path d="M54.3987 4.5882C55.8818 4.5882 56.325 4.14702 56.325 2.89996H55.0723C55.0723 3.41173 54.8418 3.63526 54.3987 3.63526C53.9555 3.63526 53.7368 3.40585 53.7368 2.89996H52.4723C52.4723 4.14702 52.9155 4.5882 54.3987 4.5882ZM41.7414 12.0529H42.2555C44.1818 12.0529 45.1568 11.1 45.1568 9.16467V8.29408C45.1568 6.37643 44.1878 5.40584 42.2555 5.40584H39.9628V15.7411H41.7414V12.0529ZM41.7414 6.96467H42.0368C42.9941 6.96467 43.3605 7.32937 43.3605 8.29408V9.16467C43.3605 10.1294 42.9941 10.4941 42.0368 10.4941H41.7414V6.96467ZM50.6346 14.1882H47.8987V11.1706H49.4823V9.61173H47.8987V6.97055H50.6346V5.41173H46.12V15.747H50.6346V14.1882ZM21.8868 10.7882V10.8706C21.8868 10.8706 20.7818 11.0706 20.7818 12.347V15.747H22.5605V12.4176C22.5605 11.8411 22.7909 11.6117 23.305 11.6117H23.8191V15.747H25.6155V5.39996H23.3346C21.4614 5.39996 20.4864 6.36467 20.4864 8.2882V8.72938C20.4864 10.5706 21.8928 10.7823 21.8928 10.7823L21.8868 10.7882ZM22.265 8.2882C22.265 7.32349 22.6432 6.95879 23.305 6.95879H23.8191V10.047H23.305C22.6432 10.047 22.265 9.68232 22.265 8.72938V8.2882ZM28.9246 12.0529H29.4387C31.365 12.0529 32.34 11.1 32.34 9.16467V8.29408C32.34 6.37643 31.3709 5.40584 29.4387 5.40584H27.1459V15.7411H28.9246V12.0529ZM28.9246 6.96467H29.22C30.1773 6.96467 30.5437 7.32937 30.5437 8.29408V9.16467C30.5437 10.1294 30.1773 10.4941 29.22 10.4941H28.9246V6.96467ZM55.1432 5.40584L53.2937 12.2H53.2109L53.4414 10.7235V5.40584H51.6628V15.7411H53.66L55.5096 8.93526H55.5923L55.3618 10.4235V15.7411H57.1523V5.40584H55.1432ZM32.3341 15.747L34.1068 15.7353H37.1559H38.9346V14.1823H38.2609V5.40584H33.5987L33.4391 12.4117C33.4096 13.6706 32.7773 14.1823 32.7773 14.1823H32.3341V15.747ZM34.4023 14.1117C34.4023 14.1117 35.0346 13.6706 35.0759 12.4058L35.2237 6.95879H36.4764V14.1823H34.4023V14.1176V14.1117Z" fill="white"/>
<path d="M21.3706 29.8731H20L20.0002 28.0113H20.8516C21.7861 25.7405 22.0042 22.7504 22.0042 20H26.9467V28.0113H27.8708L27.8706 29.8731H26.5H21.3706ZM23.4579 21.9041C23.354 24.0903 23.1256 26.3893 22.5026 28.0113H25.3892V21.9041H23.4579Z" fill="white"/>
<path d="M35.3323 29.8731H33.7747V24.7814C33.7747 24.33 33.7851 23.8364 33.8059 23.4274L30.4209 29.8731H28.9568V20H30.5144V25.0917C30.5144 25.543 30.504 26.0367 30.4832 26.4457L33.8682 20H35.3323V29.8731Z" fill="white"/>
<path d="M38.1739 20H43.1579V29.8731H41.6004V21.9041H39.6068C39.3576 26.1072 39.0253 29.9859 37.011 30C36.7618 30 36.4918 29.9577 36.2011 29.8166V27.9549C36.336 28.0113 36.4918 28.0395 36.6995 28.0254C37.9247 27.9126 37.987 23.4697 38.1739 20Z" fill="white"/>
<path d="M44.7145 20H49.8335V21.8618H46.272V23.9633H49.522V25.811H46.272V28.0113H49.8958V29.8731H44.7145V20Z" fill="white"/>
<path d="M51.123 20H53.8642C55.619 20 57 20.7616 57 23.3145C57 25.8674 55.619 26.6291 53.8642 26.6291H52.6805V29.8731H51.123V20ZM55.4113 23.3145C55.4113 22.1439 54.7364 21.8618 53.9369 21.8618H52.6805V24.7673H53.9369C54.7364 24.7673 55.4113 24.4711 55.4113 23.3145Z" fill="white"/>
<path fill-rule="evenodd" clip-rule="evenodd" d="M35.5882 53.5176H40.7764V38.0118H56.3645V58.7H45.9705V74.2177H40.7764V58.7H35.5823V74.2177H30.3882V62L25.1941 67.1706V74.2118H20V69.9L30.3941 59.5529V58.6882H20V38H35.5882V53.5176ZM30.3882 53.5176H25.1941V39.7235H30.3882V53.5176ZM51.1705 39.7235H45.9764V53.5176H51.1705V39.7235Z" fill="white"/>
</svg>
