<svg width="132" height="33" viewBox="0 0 132 33" fill="none" xmlns="http://www.w3.org/2000/svg">
<g clip-path="url(#clip0_78_152)">
<path d="M120.266 7.27735C119.92 7.08203 119.52 6.98438 119.121 6.98438C118.668 6.98438 118.224 7.11755 117.842 7.35725L102.217 17.3451L86.5914 7.35725C86.2097 7.10867 85.7657 6.98438 85.313 6.98438C84.9134 6.98438 84.514 7.08203 84.1677 7.27735C83.4042 7.69462 82.9336 8.49366 82.9336 9.36371V25.3H87.7012V13.714L100.938 22.1749C101.32 22.4234 101.764 22.5477 102.217 22.5477C102.67 22.5477 103.113 22.4146 103.495 22.1749L116.733 13.714V25.3H121.5V9.36371C121.5 8.49366 121.03 7.69462 120.266 7.27735Z" fill="#E73843"/>
<path d="M74.8101 18.5801L61.5728 10.1192C61.1911 9.87066 60.7472 9.74637 60.2944 9.74637C59.8416 9.74637 59.3977 9.87954 59.0071 10.1192L45.7698 18.5801V6.99414H41.0022V22.9304C41.0022 23.8004 41.4727 24.5995 42.2363 25.0167C42.5825 25.2121 42.9821 25.3097 43.3816 25.3097C43.8344 25.3097 44.2783 25.1766 44.66 24.9368L60.2855 14.949L75.911 24.9368C76.2928 25.1854 76.7367 25.3097 77.1983 25.3097C77.5978 25.3097 77.9885 25.2121 78.3436 25.0167C79.1072 24.5995 79.5777 23.8004 79.5777 22.9304V6.99414H74.8101V18.5801Z" fill="#E73843"/>
<path d="M0.5 9.37348V12.3388C0.5 13.4485 1.25465 14.4074 2.33778 14.656L29.5581 20.5422H0.5V25.3097H34.8406C36.1546 25.3097 37.2199 24.2443 37.2199 22.9304V19.8674C37.2199 18.7577 36.4653 17.8077 35.3821 17.5502L8.74776 11.7617H37.2199V6.99414H2.87933C1.56537 6.99414 0.5 8.05952 0.5 9.37348Z" fill="#E73843"/>
</g>
<defs>
<clipPath id="clip0_78_152">
<rect width="131" height="33" fill="white" transform="translate(0.5)"/>
</clipPath>
</defs>
</svg>
